<?xml version="1.0" standalone="no"?>
<!DOCTYPE svg PUBLIC "-//W3C//DTD SVG 20010904//EN"
 "http://www.w3.org/TR/2001/REC-SVG-20010904/DTD/svg10.dtd">
<svg version="1.0" xmlns="http://www.w3.org/2000/svg"
 width="700.000000pt" height="700.000000pt" viewBox="0 0 700.000000 700.000000"
 preserveAspectRatio="xMidYMid meet">
<metadata>
Created by potrace 1.14, written by Peter Selinger 2001-2017
</metadata>
<g transform="translate(0.000000,700.000000) scale(0.100000,-0.100000)"
fill="#000000" stroke="none">
<path d="M0 6418 l0 -583 292 -292 292 -292 -292 -293 -292 -293 0 -582 0
-583 583 0 583 0 292 292 292 293 293 -293 292 -292 583 0 582 0 0 583 0 582
-292 292 -293 293 293 292 292 293 0 583 0 582 -583 0 -583 0 -292 -291 -292
-292 -292 292 -293 291 -582 0 -583 0 0 -582z"/>
<path d="M3850 6098 l0 -883 78 -19 c545 -132 1019 -557 1211 -1086 7 -19 17
-44 21 -55 13 -34 50 -172 50 -189 0 -15 84 -16 885 -16 l885 0 0 23 c0 20
-15 135 -24 182 -2 11 -9 49 -16 85 -14 82 -49 237 -60 270 -4 14 -16 52 -25
85 -201 708 -685 1394 -1292 1830 -65 47 -129 93 -143 102 -131 93 -418 241
-645 332 -11 5 -33 14 -50 21 -50 20 -268 88 -352 109 -156 40 -335 73 -470
87 l-53 6 0 -884z"/>
<path d="M5077 3493 c-2 -5 -4 -34 -5 -65 -8 -406 -217 -835 -543 -1119 -131
-114 -357 -247 -499 -293 -186 -60 -302 -82 -462 -88 l-68 -3 0 -964 0 -963
148 6 c81 4 159 8 172 11 14 2 56 6 94 10 38 3 72 8 75 10 3 1 29 6 56 9 136
15 398 80 589 146 570 197 1085 538 1476 979 36 41 70 79 77 86 7 7 55 69 107
139 370 492 610 1089 682 1696 3 30 8 66 9 80 2 14 7 94 10 178 l7 152 -961 0
c-528 0 -962 -3 -964 -7z"/>
<path d="M25 3093 c6 -59 9 -76 20 -148 4 -22 8 -49 9 -60 2 -11 6 -33 10 -50
3 -16 8 -39 10 -51 62 -328 227 -753 410 -1058 36 -60 66 -111 66 -113 0 -2 4
-9 10 -16 5 -7 46 -64 91 -126 469 -665 1174 -1151 1966 -1356 72 -19 144 -37
160 -40 145 -27 249 -45 306 -50 l67 -7 0 886 c0 702 -3 886 -12 887 -40 2
-161 37 -257 74 -413 157 -747 459 -944 851 -55 109 -108 253 -133 356 l-19
78 -883 0 -884 0 7 -57z"/>
</g>
</svg>
