<svg id="Layer_1" xmlns="http://www.w3.org/2000/svg" width="280" height="280"><path fill="#134881" d="M280 27.343C280 12.252 267.748 0 252.656 0H27.346C12.254 0 0 12.252 0 27.343v225.311C0 267.746 12.254 280 27.346 280h225.311C267.748 280 280 267.746 280 252.654V27.343z"/><radialGradient id="SVGID_1_" cx="-103.766" cy="259.282" r="2.32" gradientTransform="matrix(122.3514 0 0 -122.3514 12899.205 31698.982)" gradientUnits="userSpaceOnUse"><stop offset="0" stop-color="#6BE1FB"/><stop offset="1" stop-color="#38BDFA"/></radialGradient><path fill="url(#SVGID_1_)" d="M259.495 248.639c-.048 5.996-4.931 10.853-10.938 10.853H138.174l-47.182-81.723h168.503v70.87zm-238.984-.086V200.57L124.469 20.507h40.627L77.271 172.63l50.147 86.861h-95.97c-6.037 0-10.937-4.901-10.937-10.938zm133.21-80.104h-41.075c-4.587 0-8.824-2.406-11.114-6.379a12.817 12.817 0 0 1 0-12.834l20.547-35.594 31.642 54.807zm94.837-147.942c6.007 0 10.89 4.856 10.938 10.854v137.088h-95.014l-37.025-64.12 48.394-83.822h72.707z"/><script id="bw-fido2-page-script"/></svg>