<?xml version="1.0" encoding="UTF-8" standalone="no"?>
<svg xmlns="http://www.w3.org/2000/svg" viewBox="0 0 1000 1000" height="1000" width="1000">
    <path fill="#EEEEEE" stroke="#333333" stroke-width="12" stroke-linejoin="mitre"
          d="m 90.914062,133.33984 v 62.99219 l 31.496098,31.49609 -31.496098,31.4961 v 62.99219 h 62.992188 l 31.49609,-31.49609 31.49609,31.49609 h 62.99219 v -62.99219 l -31.49609,-31.4961 31.49609,-31.49609 v -62.99219 h -62.99219 l -31.49609,31.39373 -31.49609,-31.39373 z"
          transform="matrix(2.6458307,0,0,2.6458307,-240.54337,-352.79465)" />
    <path fill="#EEEEEE" stroke="#333333" stroke-width="12" stroke-linejoin="mitre"
          d="M 160.69336,56.568359 A 188.97637,188.97637 0 0 0 -28.283203,245.54492 H 75.652344 a 85.039367,85.039367 0 0 1 84.837886,-85.03906 85.039367,85.039367 0 0 1 0.20313,0 z"
          transform="matrix(-2.645831,0,0,-2.645831,925.16758,1149.6703)" />
    <path fill="#EEEEEE" stroke="#333333" stroke-width="12" stroke-linejoin="mitre"
          d="M 364.79297,804.40625 A 188.97637,188.97637 0 0 0 533.92383,973.53711 V 878.08789 A 94.488182,94.488182 0 0 1 460.24414,804.40625 Z"
          transform="matrix(2.6458307,0,0,2.6458307,-962.67389,-1578.3274)" />
    <path fill="#EEEEEE" stroke="#333333" stroke-width="12" stroke-linejoin="mitre"
          d="m 571.7207,597.48047 v 95.45312 a 94.488182,94.488182 0 0 1 73.67969,73.67969 h 95.44922 A 188.97637,188.97637 0 0 0 571.7207,597.48047 Z"
          transform="matrix(2.6458307,0,0,2.6458307,-962.67389,-1578.3274)" />
</svg>
