<svg xmlns="http://www.w3.org/2000/svg" height="1000" width="1000"><path fill="#054" d="M0 0v166.667L83.333 250 0 333.333V500h166.667L250 416.667 333.333 500H500V333.333L416.667 250 500 166.667V0H333.333L250 83.062 166.667 0z"/><path fill="#700018" d="M500 1000a500 500 0 0 0 500-500H725.004a225 225 0 0 1-224.466 224.999 225 225 0 0 1-.538 0z"/><path fill="#be0029" d="M2.507 549.995a500 500 0 0 0 447.491 447.492V744.944a250 250 0 0 1-194.944-194.949zM550.002 2.505v252.553a250 250 0 0 1 194.944 194.944H997.49A500 500 0 0 0 550.002 2.505z"/></svg>